<svg xmlns="http://www.w3.org/2000/svg" viewBox="0 0 500 500"><defs><filter id="a"><feGaussianBlur in="SourceAlpha" result="blur" stdDeviation="2"/><feOffset dx="4" dy="4" in="blur" result="offsetBlurredAlpha"/><feMerge><feMergeNode in="offsetBlurredAlpha"/><feMergeNode in="SourceGraphic"/></feMerge></filter></defs><circle cx="250" cy="246" r="201.02" style="fill:#f3dc8b"/><circle cx="250" cy="246" r="218.82" style="fill:none;stroke:#fff;stroke-miterlimit:10;stroke-width:40.36px"/><g style="filter:url(#a)"><path d="M249.52 301.67c-8.01 0-15.12-1.45-21.35-4.34s-11.13-6.88-14.72-11.96c-3.59-5.08-5.46-10.91-5.6-17.48h25.75c.21 4.04 1.86 7.29 4.93 9.73 3.08 2.45 6.74 3.67 11 3.67 3.33 0 6.28-.73 8.85-2.2 2.58-1.47 4.59-3.53 6.06-6.2 1.46-2.66 2.18-5.73 2.14-9.2.04-3.54-.69-6.63-2.17-9.28-1.48-2.65-3.52-4.71-6.11-6.2-2.59-1.48-5.57-2.23-8.93-2.23-3.18-.04-6.19.66-9.04 2.09-2.84 1.43-5 3.38-6.46 5.85l-23.44-4.4 4.77-59.21h70.48v21.4h-48.65l-2.52 25.91h.64c1.82-3.04 4.76-5.55 8.82-7.54 4.06-1.98 8.68-2.98 13.86-2.98 6.58 0 12.45 1.53 17.62 4.59s9.24 7.29 12.23 12.68 4.48 11.58 4.48 18.56c0 7.54-1.78 14.23-5.34 20.06-3.56 5.83-8.53 10.4-14.91 13.7s-13.85 4.96-22.39 4.96Z" style="fill:#fff"/></g></svg>
