<svg xmlns="http://www.w3.org/2000/svg" viewBox="0 0 500 500"><defs><filter id="a"><feGaussianBlur in="SourceAlpha" result="blur" stdDeviation="2"/><feOffset dx="4" dy="4" in="blur" result="offsetBlurredAlpha"/><feMerge><feMergeNode in="offsetBlurredAlpha"/><feMergeNode in="SourceGraphic"/></feMerge></filter></defs><path d="m250 246 201.02-.78v.78c0 110.28-90.74 201.02-201.02 201.02-31.5 0-62.56-7.4-90.68-21.61L250 246Z" style="fill:#f3dc8b"/><circle cx="250" cy="246" r="218.82" style="fill:none;stroke:#fff;stroke-miterlimit:10;stroke-width:40.36px"/><g style="filter:url(#a)"><path d="M207.55 296.27v-19.09l40.07-35.08c3-2.72 5.56-5.21 7.67-7.48 2.11-2.27 3.72-4.56 4.83-6.87 1.11-2.31 1.66-4.82 1.66-7.54 0-3.04-.66-5.64-1.99-7.8-1.32-2.16-3.15-3.83-5.47-5.01-2.32-1.18-4.99-1.77-7.99-1.77s-5.7.62-7.99 1.85-4.07 3.01-5.34 5.34c-1.27 2.32-1.9 5.15-1.9 8.47h-25.15c0-7.47 1.68-13.93 5.04-19.36 3.36-5.43 8.09-9.63 14.19-12.58 6.1-2.95 13.19-4.42 21.27-4.42s15.57 1.39 21.72 4.18c6.15 2.79 10.92 6.68 14.29 11.67s5.07 10.77 5.07 17.35c0 4.18-.84 8.33-2.52 12.44-1.68 4.11-4.69 8.65-9.04 13.62-4.34 4.97-10.5 10.92-18.48 17.86l-13.14 12.12v.7h44.52v21.4h-81.31Z" style="fill:#fff"/></g></svg>
