<svg width="42" height="42" viewBox="0 0 42 42" fill="none" xmlns="http://www.w3.org/2000/svg">
<path d="M35.5556 7.63104C32.8322 6.38116 29.9584 5.48913 27.006 4.97717C26.9792 4.97266 26.9517 4.97655 26.9273 4.9883C26.9028 5.00005 26.8826 5.01909 26.8695 5.04279C26.4993 5.69904 26.0898 6.55742 25.8037 7.22941C22.6212 6.74644 19.384 6.74644 16.2015 7.22941C15.8823 6.48081 15.5212 5.75078 15.12 5.04279C15.1065 5.01935 15.0862 5.00053 15.0619 4.98882C15.0375 4.97711 15.0102 4.97304 14.9835 4.97717C12.0305 5.48705 9.15647 6.37917 6.43383 7.63104C6.41054 7.63993 6.39105 7.65663 6.37871 7.67829C0.934455 15.8132 -0.55917 23.7485 0.173205 31.5842C0.17583 31.6209 0.199455 31.6577 0.22833 31.6813C3.39863 34.0296 6.94465 35.8226 10.7152 36.9838C10.7418 36.9922 10.7704 36.9919 10.7969 36.9829C10.8233 36.9739 10.8462 36.9568 10.8622 36.9339C11.6707 35.8314 12.39 34.6685 13.0095 33.4453C13.018 33.4286 13.0229 33.4103 13.0238 33.3915C13.0246 33.3728 13.0215 33.3541 13.0145 33.3367C13.0075 33.3193 12.9969 33.3036 12.9834 33.2906C12.9698 33.2776 12.9537 33.2677 12.936 33.2615C11.805 32.8269 10.7097 32.3047 9.65996 31.6997C9.64078 31.6886 9.62465 31.6729 9.61303 31.654C9.6014 31.6352 9.59463 31.6137 9.59333 31.5916C9.59203 31.5695 9.59624 31.5474 9.60557 31.5273C9.61491 31.5073 9.62909 31.4898 9.64683 31.4765C9.86733 31.3112 10.0878 31.1379 10.2978 30.9647C10.3164 30.9497 10.3386 30.9402 10.3622 30.9369C10.3858 30.9337 10.4098 30.9369 10.4317 30.9463C17.3066 34.0858 24.7485 34.0858 31.5393 30.9463C31.562 30.9362 31.5869 30.9325 31.6115 30.9358C31.6361 30.939 31.6592 30.949 31.6785 30.9647C31.8885 31.1379 32.109 31.3112 32.3295 31.4765C32.3473 31.4896 32.3617 31.5069 32.3712 31.5268C32.3808 31.5468 32.3852 31.5688 32.3842 31.5909C32.3832 31.613 32.3767 31.6345 32.3653 31.6535C32.3539 31.6725 32.338 31.6883 32.319 31.6997C31.2716 32.3101 30.1749 32.8317 29.0403 33.2589C29.0228 33.2657 29.0068 33.2761 28.9936 33.2894C28.9803 33.3027 28.97 33.3187 28.9633 33.3363C28.9566 33.3539 28.9537 33.3727 28.9547 33.3914C28.9558 33.4102 28.9608 33.4286 28.9695 33.4453C29.5995 34.6659 30.3213 35.8314 31.1141 36.9339C31.1301 36.9568 31.153 36.9739 31.1794 36.9829C31.2059 36.9919 31.2345 36.9922 31.2611 36.9838C35.038 35.8262 38.5897 34.033 41.7637 31.6813C41.7795 31.6702 41.7926 31.6557 41.8021 31.6389C41.8116 31.6221 41.8173 31.6034 41.8188 31.5842C42.6956 22.5253 40.3515 14.6555 35.6081 7.68092C35.6033 7.6694 35.5962 7.659 35.5871 7.65041C35.5781 7.64182 35.5673 7.63522 35.5556 7.63104ZM14.0358 26.8119C11.9647 26.8119 10.2611 24.9114 10.2611 22.5804C10.2611 20.2468 11.9332 18.3463 14.0358 18.3463C16.1542 18.3463 17.8421 20.2625 17.8106 22.5804C17.8106 24.9114 16.1385 26.8119 14.0358 26.8119ZM27.9903 26.8119C25.9218 26.8119 24.2156 24.9114 24.2156 22.5804C24.2156 20.2468 25.8877 18.3463 27.9903 18.3463C30.1087 18.3463 31.7992 20.2625 31.7651 22.5804C31.7651 24.9114 30.1087 26.8119 27.9903 26.8119Z" fill="#F2F2F2"/>
</svg>
