<svg width="42" height="42" viewBox="0 0 42 42" fill="none" xmlns="http://www.w3.org/2000/svg">
<path d="M21.002 0C15.2987 0 14.5829 0.0249382 12.3429 0.126877C10.1072 0.229253 8.58121 0.583194 7.24595 1.10251C5.86475 1.63889 4.69311 2.3564 3.52585 3.5241C2.35771 4.69136 1.6402 5.863 1.10207 7.24376C0.581443 8.57946 0.227065 10.1059 0.126439 12.3407C0.0262501 14.5807 0 15.2969 0 21.0002C0 26.7035 0.0253757 27.4171 0.126877 29.6571C0.22969 31.8928 0.583631 33.4188 1.10251 34.754C1.63933 36.1352 2.35684 37.3069 3.52454 38.4741C4.69136 39.6423 5.863 40.3615 7.24333 40.8979C8.57946 41.4172 10.1059 41.7712 12.3411 41.8736C14.5812 41.9755 15.2965 42.0004 20.9993 42.0004C26.7031 42.0004 27.4167 41.9755 29.6567 41.8736C31.8923 41.7712 33.4201 41.4172 34.7562 40.8979C36.137 40.3615 37.3069 39.6423 38.4737 38.4741C39.6419 37.3069 40.3594 36.1353 40.8975 34.7545C41.4137 33.4188 41.7681 31.8923 41.8731 29.6576C41.9738 27.4175 42 26.7035 42 21.0002C42 15.2969 41.9738 14.5812 41.8731 12.3411C41.7681 10.1055 41.4137 8.57946 40.8975 7.2442C40.3594 5.863 39.6419 4.69136 38.4737 3.5241C37.3056 2.35596 36.1374 1.63845 34.7549 1.10251C33.4162 0.583194 31.8893 0.229253 29.6536 0.126877C27.4136 0.0249382 26.7005 0 20.9954 0H21.002ZM19.1181 3.78441C19.6772 3.78354 20.3011 3.78441 21.002 3.78441C26.609 3.78441 27.2736 3.80454 29.4878 3.90517C31.5353 3.99879 32.6466 4.34092 33.3868 4.62836C34.3669 5.00899 35.0656 5.46399 35.8001 6.199C36.5351 6.93401 36.9901 7.63402 37.3716 8.61403C37.6591 9.35341 38.0016 10.4647 38.0948 12.5122C38.1955 14.726 38.2173 15.391 38.2173 20.9954C38.2173 26.5998 38.1955 27.2648 38.0948 29.4786C38.0012 31.5261 37.6591 32.6374 37.3716 33.3768C36.991 34.3568 36.5351 35.0546 35.8001 35.7892C35.0651 36.5242 34.3673 36.9792 33.3868 37.3598C32.6475 37.6486 31.5353 37.9898 29.4878 38.0835C27.274 38.1841 26.609 38.206 21.002 38.206C15.3945 38.206 14.7299 38.1841 12.5161 38.0835C10.4686 37.989 9.35735 37.6468 8.61665 37.3594C7.63664 36.9788 6.93663 36.5238 6.20163 35.7887C5.46662 35.0537 5.01161 34.3555 4.63011 33.375C4.34267 32.6357 4.0001 31.5244 3.90692 29.4769C3.80629 27.2631 3.78616 26.5981 3.78616 20.9902C3.78616 15.3822 3.80629 14.7207 3.90692 12.5069C4.00054 10.4594 4.34267 9.34816 4.63011 8.6079C5.01074 7.62789 5.46662 6.92788 6.20163 6.19288C6.93663 5.45787 7.63664 5.00286 8.61665 4.62136C9.35691 4.33261 10.4686 3.99135 12.5161 3.89729C14.4534 3.80979 15.2042 3.78354 19.1181 3.77916V3.78441ZM32.2117 7.27132C30.8204 7.27132 29.6917 8.39877 29.6917 9.79048C29.6917 11.1817 30.8204 12.3105 32.2117 12.3105C33.603 12.3105 34.7317 11.1817 34.7317 9.79048C34.7317 8.39921 33.603 7.27045 32.2117 7.27045V7.27132ZM21.002 10.2157C15.0462 10.2157 10.2175 15.0445 10.2175 21.0002C10.2175 26.956 15.0462 31.7825 21.002 31.7825C26.9577 31.7825 31.7847 26.956 31.7847 21.0002C31.7847 15.0445 26.9573 10.2157 21.0015 10.2157H21.002ZM21.002 14.0001C24.8678 14.0001 28.002 17.134 28.002 21.0002C28.002 24.866 24.8678 28.0003 21.002 28.0003C17.1357 28.0003 14.0019 24.866 14.0019 21.0002C14.0019 17.134 17.1357 14.0001 21.002 14.0001Z" fill="#F2F2F2"/>
</svg>
