<svg width="42" height="42" viewBox="0 0 42 42" fill="none" xmlns="http://www.w3.org/2000/svg">
<path d="M21 0C9.4038 0 0 9.4038 0 21C0 32.5962 9.4038 42 21 42C32.5962 42 42 32.5962 42 21C42 9.4038 32.6004 0 21 0ZM10.3614 21.7056L10.4496 21.5628L15.9138 13.0158C15.9936 12.894 16.1826 12.9066 16.2414 13.041C17.1528 15.0864 17.9424 17.6316 17.5728 19.215C17.4174 19.866 16.9848 20.748 16.4976 21.5628C16.4346 21.6804 16.3674 21.798 16.2918 21.9114C16.2582 21.9618 16.1994 21.9912 16.1364 21.9912H10.521C10.3698 21.9912 10.2816 21.8274 10.3614 21.7056ZM34.7088 24.6456C34.7088 24.7254 34.6626 24.7926 34.5954 24.822C34.1712 25.0026 32.7222 25.6704 32.1216 26.5062C30.5844 28.644 29.4126 31.7016 26.7876 31.7016H15.8424C11.9616 31.7016 8.82 28.5474 8.82 24.654V24.528C8.82 24.4272 8.904 24.3432 9.009 24.3432H15.1074C15.2292 24.3432 15.3174 24.4524 15.309 24.5742C15.2628 24.969 15.3384 25.3764 15.5274 25.746C15.8886 26.481 16.6404 26.9388 17.451 26.9388H20.4708V24.5826H17.4846C17.3334 24.5826 17.241 24.4062 17.3292 24.2802C17.3628 24.2298 17.3964 24.1794 17.4384 24.1206C17.7198 23.7174 18.123 23.0958 18.5262 22.386C18.7992 21.9072 19.0638 21.3948 19.278 20.8824C19.32 20.79 19.3536 20.6934 19.3914 20.601C19.4502 20.4372 19.509 20.2818 19.551 20.1306C19.593 20.0004 19.6308 19.866 19.6644 19.74C19.7652 19.3032 19.8072 18.8412 19.8072 18.3624C19.8072 18.1734 19.7988 17.976 19.782 17.7912C19.7736 17.5854 19.7484 17.3796 19.7232 17.1738C19.7064 16.9932 19.6728 16.8126 19.6392 16.6278C19.593 16.3548 19.5342 16.0818 19.467 15.8088L19.4418 15.7038C19.3914 15.5148 19.3452 15.3384 19.2864 15.1494C19.1142 14.5614 18.921 13.986 18.711 13.4484C18.6354 13.2342 18.5514 13.0284 18.4632 12.8268C18.3372 12.516 18.207 12.2346 18.0894 11.97C18.0264 11.8482 17.976 11.739 17.9256 11.6256C17.8668 11.4996 17.808 11.3736 17.745 11.2518C17.703 11.1594 17.6526 11.0712 17.619 10.9872L17.2494 10.3068C17.199 10.2144 17.283 10.101 17.3838 10.1304L19.6938 10.7562H19.7022C19.7064 10.7562 19.7064 10.7562 19.7106 10.7562L20.013 10.8444L20.349 10.9368L20.4708 10.9704V9.6012C20.4708 8.9376 21 8.4 21.6594 8.4C21.987 8.4 22.2852 8.5344 22.4952 8.7528C22.7094 8.9712 22.8438 9.2694 22.8438 9.6012V11.6382L23.0916 11.7054C23.1084 11.7138 23.1294 11.7222 23.1462 11.7348C23.205 11.7768 23.2932 11.844 23.4024 11.928C23.4906 11.9952 23.583 12.0792 23.6922 12.1674C23.9148 12.348 24.1836 12.579 24.4734 12.8436C24.549 12.9108 24.6246 12.978 24.696 13.0494C25.0698 13.398 25.4898 13.8054 25.893 14.259C26.0064 14.3892 26.1156 14.5152 26.229 14.6538C26.3382 14.7924 26.46 14.9268 26.5608 15.0612C26.6994 15.2418 26.8422 15.4308 26.9724 15.6282C27.0312 15.7206 27.1026 15.8172 27.1572 15.9096C27.3252 16.1574 27.468 16.4136 27.6066 16.6698C27.6654 16.7874 27.7242 16.9176 27.7746 17.0436C27.93 17.388 28.0518 17.7366 28.1274 18.0894C28.1526 18.165 28.1694 18.2448 28.1778 18.3204V18.3372C28.203 18.438 28.2114 18.5472 28.2198 18.6606C28.2534 19.0176 28.2366 19.3788 28.161 19.74C28.1274 19.8912 28.0854 20.034 28.035 20.1894C27.9804 20.3364 27.93 20.4876 27.8628 20.6346C27.7326 20.9328 27.5814 21.2352 27.4008 21.5124C27.342 21.6174 27.2706 21.7266 27.2034 21.8316C27.1278 21.9408 27.048 22.0458 26.9808 22.1466C26.8842 22.2768 26.7834 22.4112 26.6784 22.533C26.586 22.659 26.4936 22.785 26.3886 22.8984C26.2458 23.0706 26.1072 23.2302 25.9602 23.3856C25.8762 23.4864 25.7838 23.5914 25.6872 23.6838C25.5948 23.7888 25.4982 23.8812 25.4142 23.9652C25.2672 24.1122 25.1496 24.2214 25.0488 24.318L24.8094 24.5322C24.7758 24.5658 24.7296 24.5826 24.6834 24.5826H22.8438V26.9388H25.158C25.6746 26.9388 26.166 26.7582 26.565 26.418C26.6994 26.3004 27.2916 25.788 27.993 25.0152C28.0182 24.9858 28.0476 24.969 28.0812 24.9606L34.4694 23.1126C34.5912 23.079 34.7088 23.1672 34.7088 23.2932V24.6456Z" fill="#F2F2F2"/>
</svg>
