<svg viewBox="0 0 42 42" fill="none" xmlns="http://www.w3.org/2000/svg" role="img"><path d="M20.1 16.398c.288-.864 1.512-.864 1.8 0l1.694 5.084a7.588 7.588 0 0 0 4.8 4.799l5.082 1.694c.865.288.865 1.511 0 1.8l-5.083 1.694a7.588 7.588 0 0 0-4.799 4.8L21.9 41.35c-.288.865-1.511.865-1.8 0l-1.694-5.083a7.588 7.588 0 0 0-4.8-4.799l-5.082-1.694c-.865-.288-.865-1.512 0-1.8l5.083-1.694a7.588 7.588 0 0 0 4.799-4.8l1.694-5.083ZM9.96 3.014a.57.57 0 0 1 1.08 0l1.017 3.05a4.553 4.553 0 0 0 2.879 2.88l3.05 1.016a.57.57 0 0 1 0 1.08l-3.05 1.017a4.553 4.553 0 0 0-2.88 2.879l-1.016 3.05a.57.57 0 0 1-1.08 0l-1.017-3.05a4.553 4.553 0 0 0-2.879-2.88l-3.05-1.016a.57.57 0 0 1 0-1.08l3.05-1.017a4.553 4.553 0 0 0 2.88-2.879l1.016-3.05ZM28.515.26a.38.38 0 0 1 .72 0l.678 2.033a3.035 3.035 0 0 0 1.92 1.92l2.033.677a.38.38 0 0 1 0 .72l-2.034.678a3.035 3.035 0 0 0-1.92 1.92l-.677 2.033a.38.38 0 0 1-.72 0l-.678-2.034a3.035 3.035 0 0 0-1.92-1.92l-2.033-.677a.38.38 0 0 1 0-.72l2.034-.678a3.035 3.035 0 0 0 1.92-1.92L28.514.26Z" fill="currentColor"/></svg>
