<svg width="42" height="42" viewBox="0 0 42 42" fill="none" xmlns="http://www.w3.org/2000/svg">
<path d="M13.1933 39.375C29.042 39.375 37.7143 26.2422 37.7143 14.8728C37.7143 14.5034 37.7143 14.1339 37.6975 13.7645C39.3782 12.5553 40.8403 11.0271 42 9.29731C40.4538 9.98585 38.7899 10.4393 37.042 10.6576C38.8235 9.59959 40.1849 7.90342 40.8403 5.88816C39.1765 6.879 37.3277 7.58434 35.3613 7.97059C33.7815 6.29121 31.5462 5.25 29.0756 5.25C24.3193 5.25 20.4538 9.11257 20.4538 13.8652C20.4538 14.537 20.5378 15.1919 20.6723 15.8301C13.5126 15.4774 7.15966 12.0347 2.90756 6.82862C2.16807 8.10495 1.7479 9.5828 1.7479 11.1614C1.7479 14.1507 3.27731 16.7873 5.57983 18.3324C4.16807 18.282 2.84034 17.8957 1.68067 17.2576C1.68067 17.2912 1.68067 17.3247 1.68067 17.3751C1.68067 21.54 4.65546 25.0331 8.58823 25.8224C7.86555 26.0239 7.10924 26.1247 6.31933 26.1247C5.76471 26.1247 5.22689 26.0743 4.70588 25.9735C5.79832 29.3995 8.9916 31.885 12.7563 31.9521C9.79832 34.2697 6.08403 35.6468 2.05042 35.6468C1.36135 35.6468 0.672269 35.6132 0 35.5292C3.79832 37.9475 8.33614 39.375 13.1933 39.375Z" fill="#F2F2F2"/>
</svg>
