<?xml version="1.0" standalone="no"?>
<!DOCTYPE svg PUBLIC "-//W3C//DTD SVG 20010904//EN"
 "http://www.w3.org/TR/2001/REC-SVG-20010904/DTD/svg10.dtd">
<svg version="1.0" xmlns="http://www.w3.org/2000/svg"
 width="548.000000pt" height="548.000000pt" viewBox="0 0 548.000000 548.000000"
 preserveAspectRatio="xMidYMid meet">
<metadata>
Created by potrace 1.14, written by Peter Selinger 2001-2017
</metadata>
<g transform="translate(0.000000,548.000000) scale(0.100000,-0.100000)"
fill="#000000" stroke="none">
<path d="M2227 3893 c-4 -3 -53 -6 -109 -7 -91 -1 -109 -4 -153 -27 -28 -15
-67 -29 -87 -32 -47 -6 -90 -37 -129 -93 -16 -24 -34 -42 -38 -39 -18 10 -76
-42 -100 -90 -14 -27 -32 -54 -40 -59 -32 -20 -61 -60 -76 -107 -9 -27 -23
-52 -30 -56 -24 -14 -53 -77 -57 -124 -3 -26 -14 -58 -28 -77 -15 -20 -23 -45
-23 -72 0 -22 -5 -40 -11 -41 -6 0 -47 0 -90 1 l-79 1 -104 72 c-94 64 -103
74 -103 102 0 21 -11 44 -32 70 -18 20 -35 53 -38 72 -4 30 -7 33 -22 21 -10
-7 -19 -29 -20 -50 -2 -21 -7 -38 -11 -38 -5 0 -40 20 -78 45 -108 70 -143 85
-190 82 -38 -2 -42 -4 -45 -32 -3 -27 3 -33 47 -60 28 -16 56 -36 62 -43 6 -8
-6 -4 -26 8 -29 17 -37 19 -37 7 0 -16 162 -127 222 -151 33 -14 37 -14 49 1
8 9 12 26 11 39 -2 13 -1 24 2 24 19 0 54 -25 67 -49 9 -16 60 -57 112 -92 53
-35 94 -65 91 -68 -2 -2 -46 16 -97 41 l-92 46 55 -49 c30 -28 78 -61 107 -75
45 -22 60 -25 120 -20 37 3 84 2 103 -3 l35 -9 -30 -2 c-16 -1 -40 -3 -52 -6
-13 -2 -32 -5 -43 -7 -11 -2 -23 -6 -26 -10 -8 -8 42 -11 151 -9 l70 1 -55
-34 c-59 -38 -54 -42 33 -21 l58 14 89 -46 c76 -39 99 -46 152 -47 115 -2 119
5 22 37 -49 16 -93 33 -97 37 -9 9 74 25 184 36 56 6 72 4 105 -14 77 -41 76
-43 -30 -37 -54 3 -97 4 -95 2 12 -11 133 -46 189 -55 145 -23 140 -23 129 7
-6 15 -28 43 -50 63 -44 41 -53 67 -17 48 14 -7 56 -12 103 -11 l80 2 -29 -23
c-19 -16 -27 -29 -23 -40 3 -9 37 -42 76 -73 56 -46 71 -64 76 -93 4 -20 19
-61 34 -91 l27 -55 85 -3 c81 -2 85 -1 120 27 31 26 37 37 37 74 1 24 6 57 12
73 l12 29 14 -27 c7 -14 15 -46 17 -71 5 -78 48 -107 161 -107 l75 0 25 43
c14 23 31 66 39 95 9 37 22 59 43 75 16 12 51 43 78 69 l49 48 -27 21 c-35 28
-26 37 27 29 50 -7 92 -3 119 11 33 18 20 -10 -27 -55 -50 -49 -61 -90 -22
-82 12 3 45 8 72 11 64 8 225 50 225 60 0 2 -44 1 -97 -2 -104 -5 -106 -2 -29
38 31 17 50 19 100 15 83 -8 187 -24 193 -30 7 -7 -59 -33 -131 -54 -50 -14
-56 -17 -35 -22 13 -4 53 -5 88 -4 55 1 77 8 152 47 78 41 91 45 121 36 50
-14 129 -22 100 -9 -12 5 -39 21 -60 35 l-37 26 75 -3 c41 -2 93 -1 115 2 35
6 37 7 15 13 -14 3 -42 9 -63 12 -67 11 -28 25 56 20 73 -4 88 -2 135 21 29
14 76 48 105 75 l52 49 -50 -28 c-50 -28 -136 -64 -141 -59 -2 1 40 31 93 66
52 35 103 76 111 91 9 16 30 35 47 43 l31 15 -4 -32 c-6 -49 14 -59 67 -35 52
23 181 106 199 127 21 26 13 35 -14 17 -14 -9 -28 -14 -31 -12 -2 3 23 22 56
42 46 29 58 41 51 50 -6 7 -9 19 -8 26 4 20 -67 22 -111 3 -20 -8 -70 -37
-112 -64 -41 -28 -80 -50 -85 -50 -6 0 -10 10 -9 23 2 28 -14 64 -31 71 -10 4
-14 -4 -14 -28 0 -24 -9 -43 -35 -70 -25 -27 -35 -46 -35 -71 0 -30 -7 -38
-105 -104 l-104 -71 -90 0 -89 0 3 28 c3 28 -19 92 -36 102 -5 4 -12 24 -14
45 -9 68 -28 117 -51 132 -13 8 -30 36 -39 63 -18 56 -50 100 -70 100 -8 0
-24 22 -36 49 -24 57 -50 84 -101 105 -20 9 -39 25 -43 36 -10 31 -85 89 -124
96 -20 3 -64 19 -97 35 -54 25 -72 29 -150 29 -49 0 -110 0 -136 0 -44 1 -102
-19 -110 -38 -1 -5 -16 -15 -33 -23 -62 -29 -100 -131 -76 -207 12 -41 45 -83
79 -101 22 -12 30 -3 13 14 -12 12 -31 92 -24 99 3 2 13 -4 24 -15 28 -28 75
-25 95 6 16 24 16 26 -10 50 -26 24 -32 49 -17 73 6 10 11 10 21 -3 38 -46
121 -59 161 -25 23 19 23 19 3 20 -11 0 -31 12 -45 27 -21 23 -22 25 -4 19 64
-25 125 -26 151 -5 22 18 16 -3 -8 -28 -20 -22 -21 -23 -2 -24 10 -1 22 -1 26
0 4 0 13 -9 19 -22 31 -59 96 -85 121 -48 14 20 17 20 49 7 19 -7 40 -11 47
-9 8 3 12 -5 12 -22 0 -61 57 -125 112 -125 12 0 19 -3 15 -6 -9 -9 14 -67 37
-93 20 -23 20 -24 1 -19 -11 3 -26 7 -34 9 -14 4 -15 -3 -12 -60 1 -26 27 -51
52 -51 12 0 25 13 36 35 21 44 34 28 26 -32 -7 -49 17 -88 49 -80 15 4 17 -1
13 -43 -2 -27 2 -72 9 -99 7 -28 10 -51 7 -51 -4 0 -31 -16 -61 -36 -50 -33
-58 -35 -85 -24 -61 24 -255 32 -311 13 -41 -14 -43 -13 -110 24 -61 33 -76
37 -148 39 -68 1 -86 -2 -123 -23 l-43 -24 -37 19 c-21 11 -55 25 -75 31 -36
12 -38 15 -39 54 -1 23 -5 53 -9 67 -7 21 -8 17 -10 -22 -1 -27 -3 -51 -4 -55
-1 -5 -5 -29 -10 -55 -4 -26 -12 -51 -18 -54 -6 -4 -9 -3 -5 2 3 5 8 41 12 79
l7 70 -55 -110 c-30 -61 -65 -119 -76 -129 -21 -19 -22 -19 -36 0 -8 10 -38
65 -66 122 -29 56 -53 101 -55 99 -2 -2 0 -35 5 -73 5 -38 7 -71 5 -73 -6 -7
-24 77 -31 149 -7 79 -20 69 -22 -18 -1 -31 -6 -44 -18 -48 -10 -3 -44 -16
-76 -29 l-58 -24 -44 24 c-82 43 -230 23 -308 -43 -16 -14 -23 -14 -70 1 -66
20 -261 11 -309 -14 -24 -13 -32 -10 -103 36 -52 33 -55 37 -44 58 7 12 13 54
13 93 0 60 3 70 17 67 31 -8 51 25 47 80 -3 57 12 72 29 27 8 -23 18 -30 37
-30 29 0 41 18 50 79 6 39 5 43 -11 36 -54 -22 -58 -20 -30 17 15 19 28 47 29
61 2 19 8 27 21 27 52 0 104 59 109 124 2 20 8 26 26 26 13 0 32 5 42 10 15 8
24 6 40 -10 11 -11 29 -20 40 -20 20 0 90 63 90 80 0 6 3 9 8 9 4 -1 16 -1 26
0 19 1 18 2 -2 24 -25 27 -30 46 -6 27 19 -16 104 -16 134 0 12 6 24 9 27 7 8
-9 -41 -47 -61 -47 -20 -1 -20 -1 3 -20 40 -34 139 -18 164 26 5 8 12 12 18 9
17 -11 9 -54 -16 -81 -19 -21 -22 -30 -14 -45 15 -28 58 -35 92 -15 16 9 32
15 34 12 2 -2 -4 -29 -15 -59 l-19 -56 21 11 c71 37 103 133 75 219 -13 37
-56 89 -75 89 -6 0 -17 7 -25 16 -25 31 -125 64 -142 47z"/>
<path d="M2110 3645 c0 -18 35 -55 53 -55 15 0 46 20 31 20 -6 0 -28 11 -48
25 -27 18 -36 21 -36 10z"/>
<path d="M3185 3634 c-16 -13 -37 -24 -44 -24 -11 0 -12 -3 -4 -11 16 -16 60
-3 73 22 18 33 7 39 -25 13z"/>
<path d="M3313 3613 c-13 -13 -34 -23 -50 -23 l-28 -1 24 -13 c32 -18 70 -8
84 21 15 34 -3 44 -30 16z"/>
<path d="M1980 3619 c0 -6 5 -19 10 -30 12 -21 63 -26 90 -9 12 8 9 10 -12 10
-16 0 -37 9 -48 20 -22 22 -40 26 -40 9z"/>
<path d="M2496 3585 c-45 -45 -66 -102 -66 -175 0 -21 -8 -36 -28 -50 -26 -20
-27 -24 -30 -123 -2 -69 2 -115 11 -142 14 -39 14 -38 16 75 2 63 3 123 2 133
0 9 15 27 32 40 31 21 32 24 30 87 -2 71 18 123 65 173 43 45 15 30 -32 -18z"/>
<path d="M2812 3594 c39 -42 58 -95 58 -165 0 -55 3 -64 30 -89 32 -30 35 -54
32 -230 -2 -52 -1 -54 12 -30 10 18 13 60 12 142 -1 112 -2 117 -27 140 -21
20 -28 37 -33 91 -8 71 -43 135 -88 158 -21 11 -21 9 4 -17z"/>
<path d="M2619 3586 c-29 -10 -98 -51 -99 -59 -7 -31 -10 -77 -6 -77 3 0 20 9
38 20 41 25 74 26 87 2 15 -27 2 -38 -66 -52 -55 -12 -63 -17 -63 -37 0 -21
34 -63 52 -63 10 0 23 -50 19 -70 -4 -21 -23 -31 -44 -24 -17 5 -17 3 -6 -18
7 -12 12 -24 11 -25 -8 -12 4 -26 36 -47 67 -44 132 -39 192 14 40 36 37 37
-25 9 -37 -16 -60 -20 -96 -16 -47 6 -116 34 -106 44 3 2 14 0 25 -6 15 -8 23
-5 41 15 18 21 29 24 63 21 27 -3 46 -12 57 -26 l16 -21 33 20 c33 20 42 38
20 37 -36 -1 -46 5 -51 30 -4 21 3 35 34 66 53 55 52 82 -3 92 -24 5 -46 9
-50 10 -5 1 -17 3 -27 4 -16 1 -18 6 -12 29 9 35 38 39 90 12 l41 -20 0 25 c0
38 -16 62 -58 89 -48 29 -98 37 -143 22z"/>
<path d="M1805 3572 c-10 -10 -5 -58 7 -70 14 -14 54 -16 62 -3 7 10 -60 81
-69 73z"/>
<path d="M3496 3558 c-9 -12 -26 -28 -38 -34 l-23 -12 26 -12 c37 -17 69 1 69
40 0 38 -15 46 -34 18z"/>
<path d="M2167 3543 c3 -10 13 -24 21 -30 20 -17 90 -16 120 1 21 11 19 13
-32 14 -30 0 -68 8 -85 16 -29 15 -30 15 -24 -1z"/>
<path d="M3156 3551 c-8 -12 -81 -25 -131 -24 l-40 2 35 -14 c69 -27 128 -16
143 28 7 18 2 23 -7 8z"/>
<path d="M2099 3486 c-3 -3 -23 -8 -45 -12 -48 -7 -46 -6 -38 -38 15 -60 100
-33 92 29 -2 15 -6 24 -9 21z"/>
<path d="M3210 3477 c0 -53 41 -88 78 -68 22 12 36 61 18 62 -13 1 -32 5 -68
14 -22 6 -28 4 -28 -8z"/>
<path d="M3390 3454 c0 -18 44 -86 65 -100 25 -17 64 -11 66 9 0 7 2 19 3 27
2 8 0 25 -5 37 -7 20 -11 22 -34 11 -21 -9 -32 -8 -60 5 -19 9 -35 14 -35 11z"/>
<path d="M1897 3439 c-10 -6 -34 -8 -53 -5 -21 4 -34 3 -35 -4 -5 -40 -4 -57
3 -72 19 -39 76 -11 108 53 21 41 14 49 -23 28z"/>
<path d="M1750 3424 c-14 -7 -33 -14 -42 -14 -28 0 -24 -57 4 -66 17 -5 27 0
44 21 21 27 38 76 25 74 -3 -1 -17 -7 -31 -15z"/>
<path d="M3551 3408 c12 -45 41 -72 68 -63 15 4 21 15 21 36 0 16 -3 29 -7 30
-30 3 -59 11 -67 19 -19 19 -25 10 -15 -22z"/>
<path d="M1964 3355 c-29 -71 20 -105 58 -39 l18 30 -30 23 -31 22 -15 -36z"/>
<path d="M3311 3365 c-23 -23 -23 -23 -5 -54 25 -43 64 -44 64 -1 0 30 -18 80
-29 79 -3 0 -17 -11 -30 -24z"/>
<path d="M2108 3353 c-37 -15 -44 -30 -38 -73 3 -21 30 -38 52 -32 23 6 37 31
39 69 4 60 4 59 -53 36z"/>
<path d="M3169 3358 c-1 -7 -2 -22 -3 -33 -2 -27 21 -75 37 -76 46 -5 67 18
58 64 -4 17 -10 31 -14 29 -4 -1 -20 4 -37 13 -35 18 -40 19 -41 3z"/>
<path d="M1676 3271 c-10 -10 -28 -22 -42 -25 -29 -8 -31 -29 -5 -55 26 -26
54 -17 91 28 33 39 38 61 16 61 -8 0 -21 2 -28 5 -8 3 -22 -3 -32 -14z"/>
<path d="M1809 3276 c-7 -70 40 -98 94 -56 22 18 24 23 14 45 -10 21 -18 24
-59 23 -27 0 -48 -5 -49 -12z"/>
<path d="M3413 3264 c-11 -23 -9 -27 20 -45 18 -10 40 -19 49 -19 21 0 47 36
43 58 -2 9 -4 20 -4 25 -1 4 -22 7 -48 7 -42 0 -50 -4 -60 -26z"/>
<path d="M3603 3283 c-13 -2 -23 -9 -23 -16 0 -21 45 -77 73 -88 23 -10 31 -9
47 6 23 21 27 55 6 55 -8 0 -28 11 -44 25 -17 14 -31 24 -33 24 -2 -1 -14 -4
-26 -6z"/>
<path d="M2452 3258 c15 -23 30 -27 36 -10 1 4 -10 14 -24 21 -27 12 -27 12
-12 -11z"/>
<path d="M2870 3265 c-7 -8 -16 -12 -21 -9 -5 3 -9 1 -9 -5 0 -27 32 -19 43
12 8 21 3 22 -13 2z"/>
<path d="M1925 3203 c-34 -51 -5 -68 79 -47 19 5 27 3 22 -4 -12 -19 12 -62
35 -62 22 0 105 77 95 87 -3 3 -25 6 -50 7 -28 1 -51 8 -58 18 -7 9 -34 18
-60 21 -42 4 -49 2 -63 -20z"/>
<path d="M3341 3222 c-26 -2 -52 -11 -65 -23 -16 -15 -32 -20 -63 -17 -24 2
-43 0 -43 -4 0 -17 79 -88 98 -88 23 0 42 27 42 60 0 20 1 20 31 5 39 -21 73
-16 77 11 5 36 -27 60 -77 56z"/>
<path d="M705 3184 c34 -30 142 -84 166 -84 14 0 49 29 38 31 -2 0 -22 2 -43
4 -22 2 -73 20 -115 40 -70 32 -74 33 -46 9z"/>
<path d="M4625 3197 c-38 -25 -130 -59 -162 -60 -20 -1 -33 -6 -33 -14 0 -22
30 -27 68 -13 39 14 137 74 147 90 8 13 3 13 -20 -3z"/>
<path d="M1780 3162 c0 -11 -53 -41 -79 -45 -31 -5 -34 -12 -17 -45 17 -33 56
-48 86 -32 20 10 96 99 89 103 -11 8 -61 27 -69 27 -6 0 -10 -4 -10 -8z"/>
<path d="M3505 3158 c-41 -15 -41 -13 -10 -57 50 -73 98 -89 140 -46 28 28 33
55 9 55 -20 0 -94 41 -94 52 0 10 -7 9 -45 -4z"/>
<path d="M991 2999 c139 -117 221 -182 292 -228 37 -25 67 -50 68 -55 15 -195
121 -497 252 -719 48 -81 142 -212 188 -262 15 -16 36 -39 46 -50 27 -31 3 4
-38 55 -91 114 -184 276 -247 431 -39 94 -87 242 -96 289 -2 14 -5 25 -6 25
-1 0 -3 8 -5 17 -2 9 -8 40 -14 70 -7 29 -14 77 -17 106 l-6 52 39 0 c27 0 53
-10 86 -32 46 -31 50 -38 82 -136 42 -125 109 -261 176 -357 76 -109 94 -126
53 -50 -99 182 -174 361 -193 462 l-8 42 31 -6 c119 -24 120 -24 137 -89 33
-121 109 -274 158 -318 15 -13 9 3 -19 60 -43 88 -84 206 -95 273 -6 38 -5 43
9 38 8 -3 35 0 59 7 l43 13 27 -79 c25 -72 94 -194 104 -184 2 2 -7 26 -20 53
-14 27 -32 73 -41 103 -33 116 -30 130 28 130 16 0 27 3 24 6 -12 12 -88 11
-148 -1 -50 -10 -70 -10 -111 0 -27 7 -53 14 -57 14 -11 2 -75 13 -92 17 -80
18 -107 28 -132 49 -35 29 -25 27 -115 30 -66 1 -77 5 -129 41 -32 21 -71 48
-88 59 -17 11 -90 59 -163 108 -72 48 -135 87 -138 87 -4 0 30 -32 76 -71z"/>
<path d="M4255 2969 c-82 -55 -178 -121 -213 -146 -60 -43 -65 -45 -141 -46
-68 -2 -82 -5 -114 -30 -28 -21 -69 -35 -167 -57 -148 -34 -167 -36 -230 -25
-63 11 -140 13 -140 5 0 -4 16 -11 36 -15 35 -6 36 -7 30 -43 -10 -55 -36
-131 -63 -185 -31 -62 -24 -70 13 -15 39 58 51 83 77 161 l22 65 38 -13 c21
-7 47 -11 57 -8 15 4 20 0 20 -15 0 -39 -52 -198 -93 -283 -35 -73 -38 -84
-19 -66 48 45 126 211 159 337 8 32 13 36 61 46 29 7 63 15 76 18 23 6 23 5
15 -39 -20 -108 -97 -292 -186 -443 -51 -88 -54 -98 -12 -46 98 121 180 273
233 434 20 58 43 110 52 115 9 6 28 19 43 31 16 13 42 21 70 22 l43 2 -6 -58
c-6 -60 -12 -93 -20 -120 -3 -9 -8 -31 -11 -48 -14 -88 -90 -309 -146 -429
-48 -104 -163 -287 -216 -345 -13 -14 -23 -29 -23 -33 0 -20 173 204 211 273
8 14 17 27 20 30 3 3 28 50 56 105 79 155 160 389 179 510 11 74 23 120 33
123 11 4 144 96 175 122 133 111 245 210 239 210 -4 0 -75 -46 -158 -101z"/>
<path d="M1773 2714 c30 -17 145 -22 168 -9 22 14 -23 23 -116 24 -77 0 -79 0
-52 -15z"/>
<path d="M2060 2722 c0 -4 11 -18 25 -30 25 -22 67 -107 106 -212 11 -31 36
-75 54 -96 46 -53 79 -178 58 -218 -10 -20 -13 -48 -9 -98 3 -39 8 -73 11 -76
3 -3 5 -1 6 4 0 5 2 18 5 29 2 11 6 43 9 70 3 28 10 62 16 78 11 25 10 43 -6
121 -7 36 -31 81 -65 126 -15 19 -35 58 -45 85 -25 69 -82 179 -103 198 -21
18 -62 31 -62 19z"/>
<path d="M3220 2713 c-25 -18 -72 -101 -110 -197 -18 -43 -41 -88 -52 -100
-50 -53 -91 -202 -68 -246 7 -12 14 -43 16 -69 5 -64 14 -114 20 -108 3 3 8
36 11 75 4 49 1 77 -9 96 -21 41 13 172 58 223 18 20 43 64 55 97 37 103 82
190 112 218 28 25 28 27 7 25 -12 -1 -30 -7 -40 -14z"/>
<path d="M3395 2720 c-16 -6 -17 -9 -5 -14 47 -18 161 -9 185 15 12 12 -148
11 -180 -1z"/>
<path d="M2202 2664 c61 -136 96 -180 155 -192 26 -6 49 -9 51 -7 2 1 -13 13
-33 25 -20 12 -60 54 -89 94 -29 39 -63 80 -75 90 l-22 20 13 -30z"/>
<path d="M3091 2643 c-35 -42 -38 -45 -68 -89 -12 -17 -40 -43 -63 -59 -22
-15 -39 -29 -38 -31 2 -1 25 2 51 8 35 7 54 18 71 41 31 41 96 167 86 167 -5
0 -22 -17 -39 -37z"/>
<path d="M2608 2480 c-21 -11 -38 -25 -38 -30 0 -5 -21 -16 -47 -23 l-47 -14
30 -10 c16 -5 45 -8 64 -6 l35 4 -37 -36 c-22 -20 -57 -40 -84 -47 -38 -10
-49 -19 -65 -50 -27 -52 -25 -57 19 -47 20 5 64 12 97 15 81 7 79 6 95 53 22
69 37 71 63 12 24 -55 26 -57 118 -66 31 -3 71 -10 88 -15 36 -10 40 0 16 47
-11 23 -29 36 -73 51 -32 12 -71 35 -86 51 l-29 30 53 -1 c29 0 57 5 63 11 8
8 5 11 -10 11 -11 0 -44 16 -73 36 -65 44 -103 50 -152 24z"/>
<path d="M2306 2426 c6 -16 28 -27 62 -31 33 -5 27 10 -12 29 -42 20 -57 20
-50 2z"/>
<path d="M2985 2430 c-12 -4 -27 -15 -34 -24 -23 -27 23 -20 56 9 29 25 18 32
-22 15z"/>
<path d="M2345 2360 c-3 -5 3 -14 14 -19 26 -14 31 -14 31 3 0 16 -37 29 -45
16z"/>
<path d="M2957 2359 c-20 -12 -23 -29 -3 -29 17 0 40 26 29 33 -5 3 -16 1 -26
-4z"/>
<path d="M2010 2328 c0 -29 45 -100 91 -143 28 -26 53 -45 56 -42 5 6 -133
197 -142 197 -3 0 -5 -5 -5 -12z"/>
<path d="M3299 2322 c-42 -49 -130 -175 -125 -179 12 -12 116 101 132 143 19
49 16 63 -7 36z"/>
<path d="M1891 2225 c24 -69 77 -139 157 -208 34 -29 43 -23 15 11 -10 11 -43
53 -73 93 -30 40 -67 86 -83 103 l-27 31 11 -30z"/>
<path d="M3424 2227 c-15 -17 -96 -121 -167 -214 -6 -9 -6 -13 0 -13 18 0 120
106 146 152 25 41 50 98 44 98 -2 0 -12 -10 -23 -23z"/>
<path d="M3625 2162 c-56 -85 -174 -254 -205 -292 -36 -45 -21 -45 26 0 57 56
132 151 167 211 27 48 70 149 65 155 -2 1 -26 -32 -53 -74z"/>
<path d="M1661 2203 c41 -109 108 -211 201 -308 77 -80 88 -77 25 7 -68 92
-206 294 -213 312 -3 9 -10 16 -15 16 -5 0 -4 -12 2 -27z"/>
<path d="M2585 2164 c-27 -7 -66 -13 -86 -13 -24 -1 -43 -9 -58 -25 l-23 -25
110 0 c61 0 113 3 116 7 2 4 1 21 -2 37 l-7 30 -50 -11z"/>
<path d="M2690 2140 l0 -40 110 1 c100 1 109 3 98 18 -21 26 -31 31 -69 31
-20 0 -58 7 -85 15 -27 8 -50 15 -51 15 -2 0 -3 -18 -3 -40z"/>
<path d="M3476 1673 c-6 -14 -5 -15 5 -6 7 7 10 15 7 18 -3 3 -9 -2 -12 -12z"/>
<path d="M1870 1646 c0 -2 8 -10 18 -17 15 -13 16 -12 3 4 -13 16 -21 21 -21
13z"/>
</g>
</svg>
